HIERARCHY
ROOT Hips
{
	OFFSET 0.000000 0.000000 0.000000
	CHANNELS 6 Xposition Yposition Zposition Zrotation Yrotation Xrotation 
	JOINT LHipJoint
	{
		OFFSET 0.000000 0.000000 0.000000
		CHANNELS 3 Zrotation Yrotation Xrotation
		JOINT LeftUpLeg
		{
			OFFSET 1.363060 -1.794630 0.839290
			CHANNELS 3 Zrotation Yrotation Xrotation
			JOINT LeftLeg
			{
				OFFSET 2.448110 -6.726130 0.000000
				CHANNELS 3 Zrotation Yrotation Xrotation
				JOINT LeftFoot
				{
					OFFSET 2.562200 -7.039590 0.000000
					CHANNELS 3 Zrotation Yrotation Xrotation
					JOINT LeftToeBase
					{
						OFFSET 0.157640 -0.433110 2.322550
						CHANNELS 3 Zrotation Yrotation Xrotation
						End Site
						{
							OFFSET 0.000000 0.000000 0.000000
						}
					}
				}
			}
		}
	}
	JOINT RHipJoint
	{
		OFFSET 0.000000 0.000000 0.000000
		CHANNELS 3 Zrotation Yrotation Xrotation
		JOINT RightUpLeg
		{
			OFFSET -1.305520 -1.794630 0.839290
			CHANNELS 3 Zrotation Yrotation Xrotation
			JOINT RightLeg
			{
				OFFSET -2.542530 -6.985550 0.000000
				CHANNELS 3 Zrotation Yrotation Xrotation
				JOINT RightFoot
				{
					OFFSET -2.568260 -7.056230 0.000000
					CHANNELS 3 Zrotation Yrotation Xrotation
					JOINT RightToeBase
					{
						OFFSET -0.164730 -0.452590 2.363150
						CHANNELS 3 Zrotation Yrotation Xrotation
						End Site
						{
							OFFSET 0.000000 0.000000 0.000000
						}
					}
				}
			}
		}
	}
	JOINT LowerBack
	{
		OFFSET 0.000000 0.000000 0.000000
		CHANNELS 3 Zrotation Yrotation Xrotation
		JOINT Spine
		{
			OFFSET 0.028270 2.035590 -0.193380
			CHANNELS 3 Zrotation Yrotation Xrotation
			JOINT Spine1
			{
				OFFSET 0.056720 2.048850 -0.042750
				CHANNELS 3 Zrotation Yrotation Xrotation
				JOINT Neck
				{
					OFFSET 0.000000 0.000000 0.000000
					CHANNELS 3 Zrotation Yrotation Xrotation
					JOINT Neck1
					{
						OFFSET -0.054170 1.746240 0.172020
						CHANNELS 3 Zrotation Yrotation Xrotation
						JOINT Head
						{
							OFFSET 0.104070 1.761360 -0.123970
							CHANNELS 3 Zrotation Yrotation Xrotation
							End Site
							{
								OFFSET 0.000000 0.000000 0.000000
							}
						}
					}
				}
				JOINT LeftShoulder
				{
					OFFSET 0.000000 0.000000 0.000000
					CHANNELS 3 Zrotation Yrotation Xrotation
					JOINT LeftArm
					{
						OFFSET 3.362410 1.200890 -0.311210
						CHANNELS 3 Zrotation Yrotation Xrotation
						JOINT LeftForeArm
						{
							OFFSET 4.983000 -0.000000 -0.000000
							CHANNELS 3 Zrotation Yrotation Xrotation
							JOINT LeftHand
							{
								OFFSET 3.483560 -0.000000 -0.000000
								CHANNELS 3 Zrotation Yrotation Xrotation
								JOINT LeftFingerBase
								{
									OFFSET 0.000000 0.000000 0.000000
									CHANNELS 3 Zrotation Yrotation Xrotation
									JOINT LeftHandIndex1
									{
										OFFSET 0.715260 -0.000000 -0.000000
										CHANNELS 3 Zrotation Yrotation Xrotation
										End Site
										{
											OFFSET 0.000000 0.000000 0.000000
										}
									}
								}
								JOINT LThumb
								{
									OFFSET 0.000000 0.000000 0.000000
									CHANNELS 3 Zrotation Yrotation Xrotation
									End Site
									{
										OFFSET 0.000000 0.000000 0.000000
									}
								}
							}
						}
					}
				}
				JOINT RightShoulder
				{
					OFFSET 0.000000 0.000000 0.000000
					CHANNELS 3 Zrotation Yrotation Xrotation
					JOINT RightArm
					{
						OFFSET -3.136600 1.374050 -0.404650
						CHANNELS 3 Zrotation Yrotation Xrotation
						JOINT RightForeArm
						{
							OFFSET -5.241900 -0.000000 -0.000000
							CHANNELS 3 Zrotation Yrotation Xrotation
							JOINT RightHand
							{
								OFFSET -3.444170 -0.000000 -0.000000
								CHANNELS 3 Zrotation Yrotation Xrotation
								JOINT RightFingerBase
								{
									OFFSET 0.000000 0.000000 0.000000
									CHANNELS 3 Zrotation Yrotation Xrotation
									JOINT RightHandIndex1
									{
										OFFSET -0.622530 -0.000000 -0.000000
										CHANNELS 3 Zrotation Yrotation Xrotation
										End Site
										{
											OFFSET 0.000000 0.000000 0.000000
										}
									}
								}
								JOINT RThumb
								{
									OFFSET 0.000000 0.000000 0.000000
									CHANNELS 3 Zrotation Yrotation Xrotation
									End Site
									{
										OFFSET 0.000000 0.000000 0.000000
									}
								}
							}
						}
					}
				}
			}
		}
	}
}
MOTION
Frames: 4
Frame Time: 0.008333
10.014314 17.497434 11.607772 -9.410750 -73.903816 18.667253 -3.863980 -1.385106 -0.397965 -7.960396 7.098126 -28.313573 7.225265 15.993827 50.620010 1.583393 -1.748357 -20.190035 0.333800 -3.713000 -10.270700 0.604697 1.084430 -2.076590 0.684585 12.745593 -48.415695 -21.451414 -19.762675 94.552531 0.060335 10.020446 7.463862 -1.033200 6.465400 -18.141000 -2.654922 0.621259 13.997756 1.821677 0.956594 -3.228198 5.572106 0.306766 -2.670466 -0.269877 -7.370336 -13.093827 3.758249 -10.167615 17.611597 -1.202500 -4.405700 6.147700 10.753571 -3.800558 0.948347 -91.530762 -0.287332 81.109482 106.015122 -55.610981 -67.417240 -0.513066 -1.093600 -35.800537 -53.725456 25.505529 -30.945700 -7.125000 0.000000 0.000000 -66.331700 44.964200 0.115800 -8.300885 4.474741 1.220161 100.263752 -20.714072 40.805344 -112.092985 55.300829 -77.811982 1.460826 -0.827417 6.450258 -14.416804 -14.541364 3.894300 7.125000 0.000000 0.000000 10.502500 -44.017000 0.257800 
9.954179 17.501166 11.544865 -8.031085 -69.162195 16.965968 -3.737404 -1.361951 -0.420125 -7.844697 8.299362 -29.231932 7.239484 16.010802 50.646885 1.449273 -0.879662 -20.028893 0.367200 -3.892500 -10.774400 0.547499 1.063382 -2.014973 -0.609545 12.478930 -47.457110 -21.006449 -19.805872 93.203237 0.000134 8.605933 6.880078 -0.865500 5.932200 -16.587800 -2.264388 0.371921 14.173693 1.997619 0.679518 -3.251003 5.801777 0.189605 -2.753105 -0.590278 -7.754095 -12.876483 4.232314 -10.738952 17.259642 -1.021600 -4.684700 6.024300 10.766594 -3.833876 0.953836 -91.790581 -0.473692 80.955079 104.827926 -55.920959 -66.155355 -0.553001 -1.158297 -36.102897 -52.979023 25.682906 -30.403000 -7.125000 0.000000 0.000000 -66.531300 45.302700 -0.972400 -8.281922 4.464527 1.246021 99.917615 -21.441509 40.227907 -112.974674 55.089503 -78.685357 1.453667 -0.858863 6.132712 -14.563790 -13.478870 3.622800 7.125000 0.000000 0.000000 10.117700 -42.916400 0.526000 
9.889247 17.504471 11.488889 -7.456838 -64.461860 16.055646 -3.593178 -1.345456 -0.464319 -7.704100 9.420684 -30.192028 7.270270 16.035148 50.716420 1.326068 -0.122581 -19.866662 0.382900 -3.973800 -11.002800 0.503451 1.030209 -1.942301 -1.748610 12.199047 -46.227661 -20.461026 -19.842926 91.557737 -0.052568 6.931576 6.368200 -0.634600 5.097100 -14.185700 -1.749510 0.139659 14.327202 2.175854 0.440673 -3.271079 5.975239 0.090082 -2.824797 -0.875574 -8.138605 -12.678766 4.738072 -11.320538 16.854851 -0.835700 -4.968300 5.893800 10.780708 -3.867693 0.963265 -92.080314 -0.684035 80.787459 103.538253 -56.261057 -64.780837 -0.599826 -1.227515 -36.293039 -51.992496 25.796034 -29.590500 -7.125000 0.000000 0.000000 -66.540900 45.621400 -1.969600 -8.264979 4.450823 1.268663 99.519122 -22.162350 39.612913 -113.943377 54.845088 -79.658232 1.460670 -0.865974 5.697628 -15.075570 -12.835101 3.552200 7.125000 0.000000 0.000000 9.516000 -42.292000 0.642100 
9.819943 17.505538 11.440056 -7.305848 -59.904129 15.552375 -3.436358 -1.331226 -0.524705 -7.553123 10.507558 -31.186606 7.312069 16.065238 50.812011 1.223928 0.501074 -19.748043 0.378500 -3.951100 -10.939000 0.469628 0.988455 -1.863676 -2.729233 11.982217 -44.746669 -19.819849 -19.864273 89.627950 -0.087060 4.950036 5.840385 -0.386600 3.992600 -11.055900 -1.173533 -0.061080 14.423346 2.362496 0.252129 -3.288459 6.142417 0.014380 -2.873391 -1.157490 -8.508660 -12.469667 5.253434 -11.881870 16.407095 -0.643000 -5.245300 5.753200 10.797166 -3.902601 0.978250 -92.421848 -0.865670 80.544198 102.196441 -56.617874 -63.344567 -0.654662 -1.297775 -36.304160 -50.740961 25.823772 -28.485400 -7.125000 0.000000 0.000000 -66.298600 45.906900 -2.809900 -8.248759 4.434143 1.288402 99.009863 -22.884486 39.011568 -114.941337 54.577283 -80.678440 1.479951 -0.843526 5.174568 -15.931096 -12.661445 3.695900 7.125000 0.000000 0.000000 8.714400 -42.202300 0.606500 
